<svg width="180" height="58" viewBox="0 0 180 58" fill="none" xmlns="http://www.w3.org/2000/svg">
<g clip-path="url(#clip0_2674_8188)">
<path d="M153.391 11.9677V43.9292H150.45V39.9649C149.208 41.4767 147.807 42.6129 146.253 43.3796C144.699 44.1391 143 44.5225 141.156 44.5225C137.881 44.5225 135.086 43.3364 132.762 40.9705C130.446 38.6048 129.284 35.7257 129.284 32.3329C129.284 29.0119 130.453 26.1758 132.798 23.8173C135.136 21.4596 137.953 20.272 141.243 20.272C143.146 20.272 144.859 20.678 146.398 21.4806C147.938 22.2911 149.288 23.4987 150.45 25.1056V11.9677H153.391ZM141.475 23.1372C139.82 23.1372 138.288 23.543 136.879 24.3527C135.478 25.1702 134.359 26.3062 133.531 27.7819C132.704 29.2503 132.283 30.8057 132.283 32.4407C132.283 34.0689 132.704 35.624 133.539 37.1073C134.381 38.5899 135.5 39.7411 136.915 40.5723C138.324 41.3975 139.834 41.8094 141.454 41.8094C143.087 41.8094 144.634 41.3975 146.093 40.5805C147.553 39.7622 148.678 38.6555 149.462 37.2519C150.254 35.8559 150.646 34.2786 150.646 32.5281C150.646 29.8581 149.76 27.6226 147.996 25.8284C146.231 24.0344 144.06 23.1372 141.475 23.1372Z" fill="#296EAB"/>
<path d="M153.999 11.9673V44.5353H149.841V41.5326C149.522 41.8467 149.194 42.1414 148.856 42.4165C148.12 43.0159 147.341 43.5174 146.521 43.9216H146.519C145.697 44.3234 144.838 44.6251 143.942 44.8261C143.045 45.0275 142.116 45.1284 141.156 45.1284C139.438 45.1284 137.841 44.8156 136.364 44.1899C134.892 43.5666 133.547 42.6344 132.329 41.3944L132.327 41.3921C131.112 40.152 130.2 38.7738 129.59 37.2594C128.98 35.7454 128.675 34.1032 128.675 32.3325C128.675 30.596 128.983 28.9798 129.6 27.4838C130.216 25.9922 131.138 24.6284 132.365 23.393C133.592 22.1559 134.948 21.2244 136.432 20.6021C137.918 19.9783 139.522 19.6652 141.243 19.6652C142.239 19.6652 143.189 19.7724 144.095 19.9853C145 20.1977 145.861 20.5181 146.679 20.9446H146.681C147.497 21.3741 148.26 21.9074 148.972 22.5437C149.271 22.8105 149.56 23.0965 149.841 23.4013V11.9673V11.3607H150.45H153.391H153.999V11.9673ZM152.782 43.3222V12.5737H151.059V26.9804L149.958 25.4579C149.405 24.6938 148.805 24.0228 148.159 23.4442C147.521 22.8729 146.839 22.3964 146.115 22.0159L146.116 22.0146C145.395 21.6393 144.63 21.3556 143.819 21.1648C143.008 20.9743 142.15 20.878 141.243 20.878C139.678 20.878 138.23 21.1581 136.903 21.7153C135.569 22.2754 134.344 23.1179 133.231 24.2412L133.229 24.2432C132.113 25.3658 131.277 26.5992 130.723 27.9437C130.169 29.2851 129.893 30.748 129.893 32.3325C129.893 33.9529 130.168 35.4453 130.717 36.8093C131.267 38.1755 132.094 39.4224 133.197 40.5489C134.302 41.6729 135.516 42.5162 136.84 43.0763C138.16 43.6354 139.598 43.9156 141.156 43.9156C142.037 43.9156 142.878 43.8252 143.677 43.646C144.482 43.4662 145.251 43.1957 145.984 42.8376L145.984 42.8366C146.722 42.4727 147.425 42.0199 148.091 41.4782C148.753 40.9395 149.383 40.307 149.979 39.5806L151.059 38.2658V39.9645V43.3222H152.782ZM141.475 23.7435C140.697 23.7435 139.951 23.838 139.239 24.0262C138.525 24.2151 137.84 24.4975 137.185 24.8731V24.8733C136.533 25.2541 135.946 25.7096 135.425 26.2416C134.904 26.7748 134.449 27.3857 134.062 28.0754V28.0777C133.672 28.7695 133.378 29.4811 133.182 30.2111C132.989 30.9326 132.892 31.6759 132.892 32.4403C132.892 33.2018 132.989 33.9447 133.184 34.6679C133.38 35.398 133.676 36.1124 134.069 36.8109L134.069 36.8111C134.464 37.5066 134.923 38.1234 135.447 38.6616C135.971 39.1994 136.562 39.6621 137.224 40.0507L137.224 40.0517C137.882 40.4369 138.562 40.7256 139.265 40.9171C139.963 41.1073 140.692 41.2026 141.454 41.2026C142.22 41.2026 142.963 41.1066 143.681 40.9166C144.403 40.7253 145.108 40.4366 145.796 40.0512C146.479 39.6683 147.083 39.2202 147.603 38.7064C148.125 38.1916 148.568 37.6086 148.932 36.9577L148.934 36.9556C149.3 36.3099 149.576 35.6176 149.76 34.88C149.945 34.1422 150.037 33.3577 150.037 32.5277C150.037 31.2678 149.83 30.1151 149.417 29.0709C149.005 28.0298 148.387 27.0898 147.563 26.252C146.738 25.4131 145.821 24.7848 144.813 24.3689C143.803 23.952 142.691 23.7435 141.475 23.7435ZM138.93 22.8558C139.75 22.639 140.599 22.5304 141.475 22.5304C142.845 22.5304 144.111 22.7709 145.274 23.2506C146.438 23.731 147.49 24.4494 148.429 25.404C149.37 26.3608 150.077 27.4367 150.549 28.6303C151.019 29.8186 151.255 31.1187 151.255 32.5277C151.255 33.4514 151.15 34.3342 150.94 35.1736C150.731 36.0066 150.415 36.7976 149.992 37.5452H149.992C149.572 38.2976 149.061 38.9703 148.459 39.5642C147.856 40.159 147.166 40.6735 146.39 41.1081C145.617 41.5414 144.816 41.8681 143.99 42.087C143.164 42.3054 142.318 42.4154 141.454 42.4154C140.596 42.4154 139.76 42.3043 138.946 42.0826C138.137 41.8621 137.358 41.5319 136.608 41.0931H136.606C135.853 40.6506 135.177 40.122 134.577 39.5054C133.979 38.8914 133.458 38.1916 133.011 37.4056L133.009 37.4027C132.566 36.6162 132.232 35.8086 132.009 34.9807C131.786 34.1512 131.674 33.3044 131.674 32.4403C131.674 31.5741 131.786 30.7257 132.008 29.898C132.23 29.0704 132.561 28.2659 133.001 27.4856L133.002 27.4859C133.443 26.7007 133.961 26.0055 134.555 25.398C135.151 24.7895 135.823 24.268 136.572 23.831L136.577 23.8289C137.33 23.3961 138.115 23.0713 138.93 22.8558Z" fill="#296EAB"/>
<path d="M99.6079 20.272C103.166 20.272 106.113 21.56 108.459 24.1359C110.586 26.4796 111.646 29.2581 111.646 32.4628C111.646 35.6817 110.521 38.5032 108.277 40.9128C106.027 43.3218 103.137 44.5225 99.6079 44.5225C96.0641 44.5225 93.1669 43.3218 90.9155 40.9128C88.6651 38.5032 87.5468 35.6817 87.5468 32.4628C87.5468 29.2725 88.6068 26.5014 90.735 24.1572C93.0729 21.5671 96.0357 20.272 99.6079 20.272ZM99.6079 23.181C97.1391 23.181 95.0182 24.0924 93.2469 25.9153C91.4747 27.7382 90.589 29.9382 90.589 32.5281C90.589 34.1912 90.9889 35.7474 91.8018 37.1866C92.6079 38.6337 93.697 39.7411 95.0765 40.5291C96.4489 41.3102 97.9596 41.7014 99.6079 41.7014C101.249 41.7014 102.759 41.3102 104.139 40.5291C105.511 39.7411 106.608 38.6337 107.413 37.1866C108.219 35.7474 108.626 34.1912 108.626 32.5281C108.626 29.9382 107.733 27.7382 105.954 25.9153C104.175 24.0924 102.062 23.181 99.6079 23.181Z" fill="#296EAB"/>
<path d="M99.6079 19.6652C101.469 19.6652 103.176 20.0046 104.731 20.6833C106.286 21.3626 107.679 22.3779 108.908 23.7282V23.7305C110.025 24.9605 110.861 26.3032 111.418 27.7576C111.976 29.2166 112.255 30.7855 112.255 32.4624C112.255 34.1445 111.959 35.7287 111.367 37.2133C110.776 38.6942 109.894 40.0657 108.722 41.3244C107.536 42.593 106.181 43.5443 104.655 44.1796C103.134 44.8124 101.451 45.1284 99.6079 45.1284C97.7571 45.1284 96.0691 44.8124 94.5441 44.1796C93.0147 43.5444 91.6566 42.5932 90.4711 41.3244C89.2967 40.0679 88.4156 38.6983 87.826 37.2192C87.2336 35.7331 86.9381 34.1466 86.9381 32.4624C86.9381 30.7923 87.2171 29.2286 87.7761 27.7732C88.3325 26.323 89.1684 24.9821 90.2844 23.7529L90.2828 23.7519C91.5103 22.3928 92.9036 21.3715 94.4618 20.6893C96.021 20.0066 97.7373 19.6652 99.6079 19.6652ZM104.246 21.7918C102.85 21.183 101.304 20.878 99.6079 20.878C97.905 20.878 96.352 21.1851 94.9519 21.7981C93.5528 22.4107 92.2966 23.3321 91.1869 24.5618H91.1843C90.1744 25.6739 89.4174 26.8891 88.9124 28.2042C88.4075 29.5193 88.1557 30.9391 88.1557 32.4624C88.1557 34.0011 88.4211 35.4393 88.9529 36.7742C89.485 38.1081 90.2875 39.351 91.3603 40.4999C92.4259 41.6401 93.6426 42.494 95.0101 43.0614C96.3826 43.6309 97.9154 43.9156 99.6079 43.9156C101.293 43.9156 102.82 43.6309 104.189 43.0614C105.552 42.494 106.767 41.6401 107.832 40.4999C108.904 39.3495 109.707 38.1049 110.24 36.7677C110.772 35.4352 111.038 33.9992 111.038 32.4624C111.038 30.9323 110.785 29.5068 110.281 28.1883C109.776 26.8696 109.019 25.6539 108.011 24.542L108.009 24.5428C106.894 23.3177 105.639 22.4006 104.246 21.7918ZM99.6079 23.7873C98.4561 23.7873 97.3888 23.9983 96.4061 24.421C95.4189 24.8455 94.5104 25.4842 93.6818 26.3368C92.8522 27.1905 92.2302 28.1311 91.8167 29.1589C91.404 30.1851 91.1976 31.3076 91.1976 32.5277C91.1976 33.316 91.2914 34.0723 91.4795 34.7957C91.667 35.5166 91.9512 36.2155 92.3318 36.8898V36.8924C92.708 37.5685 93.151 38.1645 93.6593 38.683C94.1625 39.1962 94.7356 39.6355 95.3784 40.0028L95.3779 40.0038C96.0184 40.3682 96.6898 40.6412 97.3909 40.8229C98.091 41.004 98.8299 41.0946 99.6079 41.0946C100.382 41.0946 101.119 41.004 101.819 40.8229C102.522 40.641 103.195 40.3674 103.839 40.0028L103.84 40.0035C104.474 39.639 105.047 39.1983 105.556 38.6806C106.064 38.1638 106.507 37.5682 106.883 36.8924C107.261 36.2167 107.546 35.5138 107.735 34.7868C107.923 34.0656 108.017 33.3122 108.017 32.5277C108.017 31.3081 107.809 30.1856 107.394 29.1589C106.978 28.1313 106.352 27.191 105.519 26.3368C104.684 25.4811 103.775 24.8411 102.794 24.4187C101.817 23.9975 100.756 23.7873 99.6079 23.7873ZM95.9257 23.3073C97.063 22.8188 98.2908 22.5739 99.6079 22.5739C100.915 22.5739 102.136 22.8193 103.274 23.3097C104.406 23.7977 105.445 24.5259 106.389 25.493C107.334 26.462 108.045 27.533 108.52 28.7086C108.996 29.8842 109.235 31.1572 109.235 32.5277C109.235 33.4046 109.126 34.259 108.91 35.09C108.694 35.9179 108.372 36.7152 107.944 37.4798C107.514 38.2514 107.006 38.9334 106.421 39.5286C105.838 40.1223 105.177 40.6295 104.441 41.0524L104.438 41.0548C103.703 41.4715 102.931 41.7843 102.123 41.9936C101.313 42.2028 100.475 42.3077 99.6079 42.3077C98.7372 42.3077 97.8969 42.2028 97.0863 41.9936C96.2786 41.784 95.5083 41.471 94.7768 41.0548H94.7748C94.0381 40.634 93.3762 40.1251 92.789 39.5262C92.2072 38.9331 91.7015 38.252 91.2726 37.4816L91.2715 37.4819C90.8421 36.7219 90.5205 35.927 90.3047 35.0992C90.0879 34.2652 89.9801 33.4077 89.9801 32.5277C89.9801 31.1577 90.2167 29.8853 90.6898 28.7086C91.1623 27.534 91.87 26.4625 92.8114 25.493C93.7544 24.5235 94.7925 23.7943 95.9257 23.3073Z" fill="#296EAB"/>
<path d="M27.4762 11.9676C32.2111 11.9676 36.1759 13.5446 39.3704 16.6914C42.5578 19.8453 44.1557 23.7238 44.1557 28.3313C44.1557 32.8963 42.5651 36.7672 39.378 39.9427C36.1973 43.1263 32.3125 44.7104 27.7304 44.7104C23.0985 44.7104 19.1847 43.134 15.9899 39.9648C12.8022 36.8034 11.2044 32.9692 11.2044 28.4765C11.2044 25.4814 11.9309 22.703 13.383 20.1498C14.8352 17.5886 16.8173 15.5918 19.3297 14.1377C21.8413 12.6906 24.5577 11.9676 27.4762 11.9676ZM27.6293 15.0203C25.3129 15.0203 23.1274 15.6207 21.0502 16.8213C18.9812 18.0224 17.3693 19.6431 16.2005 21.676C15.0383 23.7082 14.4575 25.9805 14.4575 28.4765C14.4575 32.1803 15.7429 35.3053 18.3206 37.8596C20.8905 40.4065 23.9985 41.6792 27.6293 41.6792C30.0542 41.6792 32.2978 41.0928 34.3604 39.9209C36.4228 38.7486 38.034 37.1436 39.1886 35.1099C40.3434 33.0774 40.9241 30.8126 40.9241 28.3313C40.9241 25.8574 40.3434 23.6218 39.1886 21.6182C38.034 19.6212 36.4079 18.0224 34.309 16.8213C32.2111 15.6207 29.9819 15.0203 27.6293 15.0203Z" fill="#296EAB"/>
<path d="M27.4762 11.361C29.9163 11.361 32.1651 11.7698 34.2222 12.5871C36.2833 13.4059 38.1419 14.6304 39.7962 16.2602L39.7985 16.2623C41.4492 17.8965 42.6905 19.7209 43.5196 21.7364C44.3485 23.754 44.7646 25.9517 44.7646 28.3313C44.7646 30.6895 44.3508 32.8752 43.523 34.8876C42.6955 36.901 41.4573 38.729 39.8082 40.3719L39.8069 40.3705C38.1609 42.0175 36.3298 43.2528 34.315 44.0775C32.2947 44.9049 30.0997 45.3169 27.7304 45.3169C25.3366 45.3169 23.1242 44.9078 21.093 44.0877C19.062 43.2673 17.218 42.0362 15.562 40.3932C13.91 38.7554 12.6689 36.94 11.8403 34.9514C11.0113 32.9601 10.5953 30.8009 10.5953 28.4765C10.5953 26.9323 10.7845 25.4382 11.162 23.9953C11.5388 22.5552 12.1033 21.1732 12.8551 19.8513L12.8561 19.8516C13.6099 18.5221 14.5002 17.3408 15.5257 16.3044C16.556 15.2641 17.7226 14.3681 19.0252 13.6141C20.3292 12.8632 21.6853 12.2997 23.0929 11.9247C24.5042 11.5489 25.9656 11.361 27.4762 11.361ZM33.7753 13.7098C31.8694 12.9533 29.7692 12.5741 27.4762 12.5741C26.0682 12.5741 24.7112 12.7474 23.4069 13.0954C22.0993 13.4436 20.8416 13.9654 19.6339 14.6614C18.4244 15.3612 17.3434 16.1912 16.3913 17.1529C15.4357 18.1177 14.6086 19.2152 13.9108 20.4455V20.4484C13.2111 21.6786 12.686 22.963 12.3367 24.2987C11.9875 25.6321 11.8132 27.025 11.8132 28.4765C11.8132 30.644 12.1966 32.648 12.9625 34.4874C13.7298 36.3292 14.8823 38.0131 16.4177 39.5357C17.9562 41.0619 19.6666 42.2042 21.5495 42.9644C23.4319 43.7249 25.4922 44.1038 27.7304 44.1038C29.9469 44.1038 31.9886 43.7231 33.8537 42.9595C35.7175 42.1971 37.4162 41.0494 38.9477 39.5167V39.5143C40.4855 37.9814 41.6373 36.2857 42.4008 34.4285C43.1649 32.5702 43.547 30.538 43.547 28.3313C43.547 26.1034 43.1631 24.0585 42.3972 22.196C41.6307 20.3331 40.4798 18.6419 38.9449 17.1224C37.4039 15.6046 35.6801 14.4667 33.7753 13.7098ZM27.6293 15.6267C26.5196 15.6267 25.4469 15.7693 24.4095 16.0533C23.3678 16.3388 22.3503 16.769 21.3547 17.3447C20.3663 17.9188 19.4879 18.5919 18.7182 19.3631C17.9503 20.1327 17.2876 21.0043 16.7283 21.9766L16.7272 21.9764C16.1752 22.942 15.7608 23.9669 15.483 25.0501C15.2054 26.1349 15.0663 27.2777 15.0663 28.4765C15.0663 30.2523 15.3717 31.8834 15.9832 33.3694C16.5956 34.8571 17.5172 36.211 18.7481 37.4307C19.9764 38.6476 21.3295 39.5591 22.8057 40.1645C24.2809 40.7696 25.8897 41.0725 27.6293 41.0725C28.7949 41.0725 29.9118 40.9331 30.9787 40.6545C32.0468 40.3755 33.075 39.9554 34.0608 39.3952C35.0401 38.8384 35.9152 38.176 36.6845 37.4098C37.4533 36.6439 38.1126 35.7769 38.6607 34.8116C39.2097 33.8452 39.6232 32.82 39.9004 31.7384C40.1768 30.6583 40.3155 29.522 40.3155 28.3313C40.3155 27.1387 40.1773 26.0113 39.9022 24.9478C39.6266 23.8831 39.2131 22.8732 38.6633 21.9194C38.1147 20.9705 37.4528 20.1144 36.6775 19.3526C35.8993 18.5877 35.0088 17.9186 34.007 17.3447C33.0081 16.7734 31.9744 16.3435 30.9084 16.0561C29.8473 15.7698 28.7539 15.6267 27.6293 15.6267ZM24.0903 14.8878C25.2435 14.5718 26.4227 14.4139 27.6293 14.4139C28.8576 14.4139 30.0555 14.5711 31.2221 14.8855C32.3825 15.1983 33.513 15.6694 34.6107 16.2979C35.7076 16.9254 36.6801 17.6562 37.5285 18.4899C38.3796 19.3266 39.1081 20.269 39.7144 21.3176C40.3186 22.3665 40.7737 23.4771 41.0769 24.649C41.3805 25.8228 41.533 27.0502 41.533 28.3313C41.533 29.6214 41.3815 30.8571 41.0796 32.0372C40.7773 33.2167 40.3228 34.3416 39.7165 35.4086C39.1105 36.4762 38.3866 37.4295 37.5452 38.2671C36.7052 39.1047 35.7428 39.8318 34.6598 40.4471C33.5836 41.0584 32.458 41.518 31.2827 41.8247C30.1067 42.1315 28.8884 42.2856 27.6293 42.2856C25.7369 42.2856 23.9741 41.9511 22.3443 41.2826C20.7183 40.6155 19.2336 39.6174 17.8924 38.2884C16.546 36.9544 15.5357 35.468 14.861 33.8289C14.1859 32.1884 13.8488 30.404 13.8488 28.4765C13.8488 27.1783 14.0006 25.936 14.3043 24.7516C14.6071 23.5684 15.0632 22.4428 15.6723 21.3775V21.3749C16.282 20.3151 17.0098 19.3594 17.8573 18.5104C18.7029 17.6633 19.6653 16.9252 20.746 16.2979C21.8266 15.6728 22.9409 15.2027 24.0903 14.8878Z" fill="#296EAB"/>
<path fill-rule="evenodd" clip-rule="evenodd" d="M18.9708 46.8527L18.2842 49.1268C17.4062 52.2779 17.8557 53.3772 18.6355 56.3005C18.755 56.7492 18.8531 57.1997 19.0453 57.5748C20.2507 57.2871 19.5907 57.3127 20.0798 57.681C20.1884 57.6036 20.0433 57.6762 20.2796 57.5669C20.9316 57.2661 22.477 57.0397 23.9827 56.2669C25.2465 55.6178 26.0609 54.8003 26.8169 53.6469C29.1052 53.6469 29.1601 53.3681 29.7 54.0849C31.0179 55.8333 34.5558 57.4777 36.7388 57.9995C36.8146 57.67 36.8718 57.6919 36.9476 57.3627C37.7101 57.7384 37.5236 57.5394 38.2338 55.3857C38.948 53.219 38.9788 51.5431 38.5656 49.2494C38.4579 48.6527 38.1931 47.1376 38.011 46.7464C36.5792 46.7464 33.7421 47.5522 32.7304 48.0212C32.3835 48.1815 31.9217 48.3747 31.5873 48.5482C31.2049 48.7471 30.9523 48.9618 30.5981 49.2338C30.0281 49.671 29.5796 50.1963 29.1044 50.1674L28.9362 50.1273C28.9231 50.1245 28.8947 50.1153 28.8813 50.1125C28.7546 50.0856 28.8001 50.0875 28.6209 50.075C28.2651 50.0498 27.6392 50.1432 27.1771 50.1931C26.5695 50.2582 26.4713 50.0617 26.1283 49.6937C25.0175 48.5027 23.1911 47.9353 21.6179 47.5322L18.9708 46.8527Z" fill="#296EAB"/>
<path d="M116.054 20.8659H119.096V24.2368C120.004 22.9131 120.963 21.922 121.965 21.2635C122.974 20.6056 124.02 20.2722 125.116 20.2722C125.937 20.2722 126.815 20.54 127.752 21.0613L126.198 23.564C125.573 23.2892 125.05 23.1591 124.622 23.1591C123.635 23.1591 122.676 23.564 121.754 24.3748C120.832 25.192 120.128 26.4506 119.649 28.1582C119.278 29.4749 119.096 32.1299 119.096 36.1306V43.9292H116.054V20.8659Z" fill="#296EAB"/>
<path d="M116.054 20.2592H119.705V22.4631C119.821 22.3322 119.938 22.2057 120.055 22.0842C120.563 21.5571 121.09 21.1155 121.632 20.7589V20.7568C122.183 20.3971 122.747 20.1257 123.325 19.943C123.909 19.7587 124.506 19.6655 125.116 19.6655C125.586 19.6655 126.07 19.7418 126.566 19.8912V19.8917C127.045 20.0361 127.539 20.2503 128.047 20.533L128.601 20.8417L128.268 21.3786L126.714 23.8816L126.435 24.3308L125.953 24.1184C125.667 23.9929 125.414 23.9024 125.194 23.8459C124.985 23.792 124.794 23.7657 124.622 23.7657C124.208 23.7657 123.801 23.8506 123.401 24.02C122.982 24.1978 122.567 24.4666 122.157 24.8261L122.158 24.8274C121.746 25.1922 121.38 25.6605 121.063 26.2304C120.736 26.8179 120.459 27.5141 120.233 28.3191V28.3217C120.06 28.9393 119.929 29.8916 119.84 31.1783C119.75 32.4834 119.705 34.1337 119.705 36.1306V43.9292V44.5356H119.096H116.054H115.446V43.9292V20.8659V20.2592H116.054ZM118.488 21.4723H116.663V43.3226H118.488V36.1306C118.488 34.1269 118.534 32.4495 118.627 31.0977C118.722 29.7281 118.867 28.6936 119.063 27.995H119.064C119.316 27.0976 119.629 26.3135 120.003 25.6428C120.388 24.9492 120.838 24.3758 121.35 23.9222H121.352C121.864 23.4724 122.389 23.1338 122.925 22.9066C123.482 22.6705 124.048 22.5526 124.622 22.5526C124.883 22.5526 125.173 22.593 125.494 22.6755C125.642 22.7132 125.794 22.7596 125.95 22.8147L126.888 21.3039C126.66 21.2019 126.436 21.1178 126.217 21.0517H126.214C125.833 20.9369 125.467 20.8786 125.116 20.8786C124.63 20.8786 124.155 20.9525 123.691 21.0991C123.22 21.2479 122.755 21.472 122.297 21.7711L122.296 21.769C121.836 22.0719 121.38 22.4569 120.93 22.9227C120.477 23.3923 120.032 23.9445 119.598 24.578L118.488 26.1977V24.2368V21.4723Z" fill="#296EAB"/>
<path d="M84.5049 11.9672V14.8681C83.4085 14.4051 82.4718 14.1739 81.6947 14.1739C81.1142 14.1739 80.6273 14.2898 80.2501 14.5211C79.8648 14.7528 79.6253 15.0206 79.5242 15.324C79.422 15.628 79.3711 16.4385 79.3711 17.7549V20.8659H84.2071V23.4126H79.3565V43.9292H76.3723V23.4126H73.3298V20.8659H76.3723V17.2628C76.3723 15.6135 76.5251 14.4342 76.8297 13.7252C77.1345 13.0236 77.6575 12.4518 78.3834 12.0182C79.1169 11.5908 79.9957 11.3743 81.0343 11.3743C81.9995 11.3743 83.1544 11.5697 84.5049 11.9672Z" fill="#296EAB"/>
<path d="M85.1138 11.9672V15.7813L84.2695 15.425C83.7531 15.2069 83.2748 15.0437 82.8351 14.9352C82.4182 14.8319 82.0382 14.7804 81.6947 14.7804C81.446 14.7804 81.226 14.8033 81.0374 14.8488H81.0348C80.8624 14.8899 80.7062 14.9529 80.5685 15.0372L80.5638 15.0401C80.423 15.1247 80.3125 15.2119 80.2323 15.3004C80.1668 15.3732 80.1221 15.4445 80.0994 15.5133V15.5156C80.0657 15.6155 80.0377 15.8433 80.0155 16.1978H80.0153C79.9918 16.5767 79.98 17.0962 79.98 17.7549V20.2592H84.2071H84.816V20.8659V23.4126V24.0192H84.2071H79.9651V43.9292V44.5356H79.3565H76.3723H75.7636V43.9292V24.0192H73.3298H72.7209V23.4126V20.8659V20.2592H73.3298H75.7636V17.2628C75.7636 16.4252 75.8041 15.6926 75.8854 15.0656C75.969 14.4173 76.0977 13.891 76.2707 13.4881L76.2733 13.4861C76.4522 13.0741 76.6946 12.7008 76.9982 12.3674C77.2994 12.0366 77.6585 11.7459 78.072 11.4992L78.0765 11.4943C78.4897 11.2538 78.9479 11.0713 79.4518 10.9482C79.945 10.8285 80.4721 10.7676 81.0343 10.7676C81.5471 10.7676 82.1116 10.8196 82.7273 10.9245C83.3249 11.0266 83.9749 11.1804 84.6762 11.387L85.1138 11.5156V11.9672ZM83.8962 13.9884V12.4244C83.4111 12.2938 82.9532 12.192 82.5225 12.1186C81.9823 12.0268 81.4859 11.9807 81.0343 11.9807C80.5581 11.9807 80.1263 12.0286 79.7371 12.1233C79.3586 12.2154 79.0101 12.3555 78.6904 12.5416L78.6898 12.5403C78.3782 12.7269 78.1133 12.9398 77.897 13.1776C77.6831 13.4127 77.5125 13.6745 77.3874 13.9618L77.3884 13.9623C77.257 14.2682 77.1567 14.6867 77.088 15.2171C77.017 15.7694 76.9812 16.4515 76.9812 17.2628V20.8659V21.4723H76.3723H73.9388V22.8059H76.3723H76.9812V23.4126V43.3226H78.7476V23.4126V22.8059H79.3565H83.5982V21.4723H79.3711H78.7625V20.8659V17.7549C78.7625 17.0988 78.776 16.5548 78.8029 16.1244V16.1218C78.8314 15.666 78.8803 15.3358 78.9482 15.132L78.9492 15.1322C79.0276 14.8985 79.154 14.6841 79.3288 14.4904C79.4889 14.3132 79.6895 14.151 79.9314 14.0048V14.0045C80.1694 13.8585 80.4442 13.7481 80.7522 13.6742L80.7519 13.6737C81.0466 13.6027 81.3619 13.5673 81.6947 13.5673C82.1283 13.5673 82.6055 13.6315 83.1251 13.7599C83.372 13.8208 83.6287 13.8968 83.8962 13.9884Z" fill="#296EAB"/>
<path d="M47.945 20.8659H51.5179L57.6462 29.4098L63.7676 20.8659H67.3466L59.4321 31.8261L68.3418 43.9292H64.7252L57.6462 34.2422L50.6679 43.9292H47.1101L55.8816 31.8261L47.945 20.8659Z" fill="#296EAB"/>
<path d="M47.9449 20.2592H51.8285L52.0119 20.5153L57.6459 28.3693L63.2726 20.5153L63.4562 20.2592H63.7676H67.3466H68.532L67.8387 21.2188L60.1821 31.822L68.8314 43.5717L69.5416 44.5356H68.3418H64.7252H64.4188L64.2355 44.2847L57.6501 35.2734L51.1601 44.2824L50.9777 44.5356H50.6679H47.1101H45.9228L46.6182 43.5763L55.1337 31.8259L47.4528 21.2188L46.758 20.2592H47.9449ZM51.2068 21.4723H49.1319L56.3735 31.473L56.6295 31.8261L56.3735 32.1787L48.2979 43.3226H50.3586L57.1538 33.8893L57.6422 33.2115L58.1362 33.8871L65.0317 43.3226H67.1421L58.9421 32.1837L58.6819 31.83L58.94 31.473L66.1617 21.4723H64.0785L58.1409 29.7602L57.6464 30.4501L57.1514 29.7602L51.2068 21.4723Z" fill="#296EAB"/>
<path fill-rule="evenodd" clip-rule="evenodd" d="M4.83423 11.0615V11.4592L4.82696 15.0576C4.81921 15.8496 4.83778 16.6403 4.83146 17.4328C4.8289 17.7641 4.84718 19.7031 4.82401 19.8316C4.61584 19.981 4.57431 19.9724 4.43952 20.1804C4.15228 20.6228 4.17464 21.2225 4.52635 21.6126C4.57677 21.6704 4.66851 21.7326 4.7184 21.8065C4.71668 21.8099 4.31045 22.6001 4.19912 22.891C3.80536 23.911 3.48413 26.1048 3.59055 27.1797H3.61137C3.65372 27.0948 4.04218 26.6901 4.12371 26.6324C4.314 26.7042 4.41167 26.9676 4.63523 27.1157L4.72135 27.1797H4.79799L5.32655 26.6337C5.47267 26.6844 5.62471 26.9202 5.76472 27.0472C5.8196 27.0977 5.88002 27.13 5.93287 27.1797H5.97827C6.01317 27.1154 6.47409 26.6602 6.52897 26.6279C6.71836 26.6901 6.90774 27.0431 7.09642 27.1328C7.20499 26.9363 7.12388 25.8536 7.0854 25.5861C7.05397 25.3625 7.02132 25.0926 6.99551 24.8753C6.9294 24.3126 6.71102 23.3856 6.52581 22.91C6.3893 22.5587 6.02286 21.889 6.00523 21.8312C6.20778 21.4567 6.49786 21.5028 6.46001 20.7061C6.4347 20.1484 6.02317 19.973 5.82694 19.7819C5.82062 19.5084 5.82726 19.239 5.81848 18.9571C5.80401 18.5233 5.87634 18.4275 5.84225 18.059C5.83399 17.9728 5.84225 17.8484 5.84225 17.7576C5.84288 17.5486 5.83063 17.3427 5.83094 17.1316C5.8697 16.6957 5.83593 12.5393 5.83593 11.6591C5.83593 11.5253 5.83624 11.3926 5.83593 11.2593C5.83593 11.1929 5.83013 11.124 5.83175 11.0615H4.83423Z" fill="#296EAB"/>
<path fill-rule="evenodd" clip-rule="evenodd" d="M0 9.78067L27.6194 0.00069809L55.2388 9.78067L27.5112 18.4834L0 9.78067Z" fill="#296EAB"/>
<path fill-rule="evenodd" clip-rule="evenodd" d="M27.0337 10.4272C33.2184 10.4272 38.8717 10.9808 43.2028 11.8953V20.9716C38.8717 21.8861 33.4143 18.4832 27.5112 18.4832C21.6079 18.4832 16.2301 22.1558 12.0806 21.3862V11.6551C16.2301 10.8847 21.412 10.4272 27.0337 10.4272Z" fill="#296EAB"/>
<path d="M27.3553 38.3853C30.1469 38.3853 32.4849 37.4558 34.3688 35.5999C36.2485 33.74 37.1902 31.4526 37.1902 28.7357L37.1881 28.5051H35.2825C35.2841 28.5816 35.2854 28.6584 35.2854 28.7357C35.2854 30.1944 34.9424 31.5129 34.262 32.6945C33.5812 33.872 32.6217 34.8144 31.3843 35.5229C30.1469 36.2311 28.8325 36.585 27.4454 36.585C26.0792 36.585 24.7907 36.2311 23.566 35.5229C22.3456 34.8144 21.3955 33.859 20.7058 32.6604C20.021 31.4617 19.6783 30.1221 19.6783 28.6503L19.6797 28.5051H17.7611L17.76 28.6503C17.76 30.4162 18.1883 32.0548 19.0443 33.5604C19.9008 35.0705 21.0697 36.2482 22.5512 37.106C24.0324 37.9592 25.634 38.3853 27.3553 38.3853Z" fill="#296EAB"/>
<path d="M27.3553 37.779C28.6773 37.779 29.8852 37.5618 30.9782 37.1277C32.0695 36.6941 33.058 36.0407 33.9435 35.1686C34.8241 34.2965 35.4845 33.3268 35.9233 32.2594C36.3188 31.2977 36.5364 30.2483 36.5753 29.1117H35.8865C35.8614 29.7512 35.771 30.3701 35.6159 30.9682C35.4301 31.6865 35.1543 32.3622 34.7899 32.9954H34.7875C34.4184 33.6333 33.9746 34.2075 33.4574 34.7155C32.9425 35.2219 32.3522 35.6655 31.6863 36.0462C31.0186 36.4286 30.3324 36.7149 29.6287 36.9043C28.9192 37.0958 28.1912 37.1914 27.4454 37.1914C26.7137 37.1914 25.9966 37.0948 25.2934 36.9023C24.5932 36.7104 23.9163 36.4252 23.2615 36.0462C22.6056 35.666 22.0209 35.2172 21.5069 34.702C20.9907 34.1845 20.5478 33.6044 20.178 32.9613V32.9589C19.8072 32.3099 19.5297 31.6256 19.3457 30.9078C19.1981 30.3313 19.1094 29.7319 19.08 29.1117H18.379C18.4469 30.5976 18.8447 31.9824 19.5722 33.2622V33.2645C19.972 33.9693 20.4466 34.5991 20.9961 35.1538C21.5412 35.7045 22.1611 36.1802 22.8558 36.5818C23.5482 36.9812 24.2699 37.2807 25.0199 37.4803C25.7669 37.6794 26.5455 37.779 27.3553 37.779ZM31.4254 38.2504C30.1812 38.7441 28.8244 38.9917 27.3553 38.9917C26.4434 38.9917 25.5599 38.8781 24.706 38.6504C23.855 38.4238 23.0351 38.0833 22.247 37.6294C21.4598 37.1739 20.754 36.6315 20.1305 36.002C19.5115 35.3766 18.9739 34.6624 18.5178 33.8587L18.5167 33.859C17.6065 32.2586 17.1512 30.52 17.1512 28.6503L17.1539 28.6482L17.1549 28.5027L17.1589 27.8986H17.7611H19.6797H20.2912L20.2859 28.51L20.2846 28.6503H20.2868C20.2868 29.3366 20.3663 29.9899 20.5251 30.6096C20.6834 31.2274 20.9194 31.8117 21.2324 32.3601L21.2334 32.3596C21.5532 32.915 21.9309 33.4116 22.3672 33.849C22.8054 34.2879 23.3064 34.672 23.8703 34.9995C24.4399 35.3287 25.0204 35.5751 25.6121 35.7368C26.2004 35.8981 26.8109 35.9788 27.4454 35.9788C28.0875 35.9788 28.7108 35.8974 29.315 35.7344C29.9236 35.5702 30.5137 35.3248 31.0826 34.9995C31.6537 34.6723 32.162 34.2903 32.6063 33.8538C33.0475 33.4199 33.4242 32.9334 33.7356 32.3947L33.7343 32.3937C34.0496 31.8453 34.286 31.2706 34.4414 30.6699C34.5981 30.0656 34.6765 29.4207 34.6765 28.7357H34.6789L34.6783 28.6295L34.6763 28.5144L34.6648 27.8986H35.2825H37.1881H37.7879L37.7944 28.5004L37.7968 28.7307L37.7994 28.7357C37.7994 30.1702 37.5476 31.4978 37.0455 32.7187C36.544 33.9384 35.794 35.0416 34.7969 36.0282L34.7943 36.0309C33.7959 37.0149 32.6722 37.7551 31.4254 38.2504Z" fill="#296EAB"/>
<path fill-rule="evenodd" clip-rule="evenodd" d="M23.5952 22.0428C24.6068 22.0428 25.4278 22.8608 25.4278 23.869C25.4278 24.8773 24.6068 25.6953 23.5952 25.6953C22.5826 25.6953 21.762 24.8773 21.762 23.869C21.762 22.8608 22.5826 22.0428 23.5952 22.0428Z" fill="#296EAB"/>
<path fill-rule="evenodd" clip-rule="evenodd" d="M31.6333 22.0428C32.6453 22.0428 33.4663 22.8608 33.4663 23.869C33.4663 24.8773 32.6453 25.6953 31.6333 25.6953C30.6213 25.6953 29.8006 24.8773 29.8006 23.869C29.8006 22.8608 30.6213 22.0428 31.6333 22.0428Z" fill="#296EAB"/>
</g>
<defs>
<clipPath id="clip0_2674_8188">
<rect width="180" height="57.999" fill="white" transform="translate(0 0.000488281)"/>
</clipPath>
</defs>
</svg>
